<svg width="64" height="64" viewBox="0 0 64 64" fill="none" xmlns="http://www.w3.org/2000/svg">
<rect width="64" height="64" rx="15" fill="#961113"/>
<path opacity="0.5" d="M32 52.8334C23.1604 52.8334 18.7417 52.8334 15.9958 49.7813C13.25 46.7334 13.25 41.8209 13.25 32C13.25 22.1792 13.25 17.2688 15.9958 14.2167C18.7417 11.1646 23.1625 11.1667 32 11.1667C40.8375 11.1667 45.2583 11.1667 48.0042 14.2167C50.75 17.2709 50.75 22.1792 50.75 32C50.75 41.8209 50.75 46.7313 48.0042 49.7813C45.2583 52.8313 40.8375 52.8334 32 52.8334Z" fill="black"/>
<path d="M38.2502 19.5H25.7502C24.7814 19.5 24.2981 19.5 23.9002 19.6063C23.3707 19.7483 22.888 20.0272 22.5003 20.4148C22.1127 20.8024 21.8339 21.2851 21.6918 21.8146C21.5835 22.2167 21.5835 22.7 21.5835 23.6667C21.5835 24.6333 21.5835 25.1187 21.6897 25.5167C21.8318 26.0461 22.1106 26.5289 22.4983 26.9165C22.8859 27.3041 23.3686 27.5829 23.8981 27.725C24.3002 27.8333 24.7835 27.8333 25.7502 27.8333H38.2502C39.2189 27.8333 39.7022 27.8333 40.1002 27.7271C40.6296 27.585 41.1124 27.3062 41.5 26.9186C41.8876 26.5309 42.1664 26.0482 42.3085 25.5187C42.4168 25.1167 42.4168 24.6333 42.4168 23.6667C42.4168 22.7 42.4168 22.2146 42.3106 21.8167C42.1685 21.2872 41.8897 20.8045 41.5021 20.4169C41.1144 20.0292 40.6317 19.7504 40.1022 19.6083C39.7022 19.5 39.2168 19.5 38.2502 19.5ZM23.6668 36.1667C24.2194 36.1667 24.7493 35.9472 25.14 35.5565C25.5307 35.1658 25.7502 34.6359 25.7502 34.0833C25.7502 33.5308 25.5307 33.0009 25.14 32.6102C24.7493 32.2195 24.2194 32 23.6668 32C23.1143 32 22.5844 32.2195 22.1937 32.6102C21.803 33.0009 21.5835 33.5308 21.5835 34.0833C21.5835 34.6359 21.803 35.1658 22.1937 35.5565C22.5844 35.9472 23.1143 36.1667 23.6668 36.1667ZM23.6668 44.5C24.2194 44.5 24.7493 44.2805 25.14 43.8898C25.5307 43.4991 25.7502 42.9692 25.7502 42.4167C25.7502 41.8641 25.5307 41.3342 25.14 40.9435C24.7493 40.5528 24.2194 40.3333 23.6668 40.3333C23.1143 40.3333 22.5844 40.5528 22.1937 40.9435C21.803 41.3342 21.5835 41.8641 21.5835 42.4167C21.5835 42.9692 21.803 43.4991 22.1937 43.8898C22.5844 44.2805 23.1143 44.5 23.6668 44.5ZM32.0002 36.1667C32.5527 36.1667 33.0826 35.9472 33.4733 35.5565C33.864 35.1658 34.0835 34.6359 34.0835 34.0833C34.0835 33.5308 33.864 33.0009 33.4733 32.6102C33.0826 32.2195 32.5527 32 32.0002 32C31.4476 32 30.9177 32.2195 30.527 32.6102C30.1363 33.0009 29.9168 33.5308 29.9168 34.0833C29.9168 34.6359 30.1363 35.1658 30.527 35.5565C30.9177 35.9472 31.4476 36.1667 32.0002 36.1667ZM32.0002 44.5C32.5527 44.5 33.0826 44.2805 33.4733 43.8898C33.864 43.4991 34.0835 42.9692 34.0835 42.4167C34.0835 41.8641 33.864 41.3342 33.4733 40.9435C33.0826 40.5528 32.5527 40.3333 32.0002 40.3333C31.4476 40.3333 30.9177 40.5528 30.527 40.9435C30.1363 41.3342 29.9168 41.8641 29.9168 42.4167C29.9168 42.9692 30.1363 43.4991 30.527 43.8898C30.9177 44.2805 31.4476 44.5 32.0002 44.5ZM40.3335 36.1667C40.886 36.1667 41.4159 35.9472 41.8066 35.5565C42.1973 35.1658 42.4168 34.6359 42.4168 34.0833C42.4168 33.5308 42.1973 33.0009 41.8066 32.6102C41.4159 32.2195 40.886 32 40.3335 32C39.781 32 39.2511 32.2195 38.8604 32.6102C38.4697 33.0009 38.2502 33.5308 38.2502 34.0833C38.2502 34.6359 38.4697 35.1658 38.8604 35.5565C39.2511 35.9472 39.781 36.1667 40.3335 36.1667ZM40.3335 44.5C40.886 44.5 41.4159 44.2805 41.8066 43.8898C42.1973 43.4991 42.4168 42.9692 42.4168 42.4167C42.4168 41.8641 42.1973 41.3342 41.8066 40.9435C41.4159 40.5528 40.886 40.3333 40.3335 40.3333C39.781 40.3333 39.2511 40.5528 38.8604 40.9435C38.4697 41.3342 38.2502 41.8641 38.2502 42.4167C38.2502 42.9692 38.4697 43.4991 38.8604 43.8898C39.2511 44.2805 39.781 44.5 40.3335 44.5Z" fill="white"/>
</svg>
